<svg xmlns="http://www.w3.org/2000/svg" viewBox="0 0 900 90" width="900" height="90" font-family="system-ui, -apple-system, 'Segoe UI', sans-serif">
  <defs>
    <linearGradient id="bg" x1="0%" y1="0%" x2="100%" y2="0%">
      <stop offset="0%" style="stop-color:#0a0a0f"/>
      <stop offset="50%" style="stop-color:#0f0f1a"/>
      <stop offset="100%" style="stop-color:#0a0a0f"/>
    </linearGradient>
  </defs>
  <rect width="900" height="90" fill="url(#bg)" rx="12"/>

  <!-- Badge: Next.js -->
  <rect x="18" y="22" width="90" height="46" rx="8" fill="#1e1e2e" stroke="#6366f1" stroke-width="1.2"/>
  <text x="63" y="41" text-anchor="middle" font-size="11" font-weight="700" fill="#6366f1">NEXT.JS</text>
  <text x="63" y="57" text-anchor="middle" font-size="10" fill="#94a3b8">16 · App Router</text>

  <!-- Badge: React -->
  <rect x="120" y="22" width="90" height="46" rx="8" fill="#1e1e2e" stroke="#38bdf8" stroke-width="1.2"/>
  <text x="165" y="41" text-anchor="middle" font-size="11" font-weight="700" fill="#38bdf8">REACT</text>
  <text x="165" y="57" text-anchor="middle" font-size="10" fill="#94a3b8">19 · TypeScript</text>

  <!-- Badge: Mistral -->
  <rect x="222" y="22" width="90" height="46" rx="8" fill="#1e1e2e" stroke="#f59e0b" stroke-width="1.2"/>
  <text x="267" y="41" text-anchor="middle" font-size="11" font-weight="700" fill="#f59e0b">MISTRAL</text>
  <text x="267" y="57" text-anchor="middle" font-size="10" fill="#94a3b8">LLM · Drafts · Q&amp;A</text>

  <!-- Badge: Azure Search -->
  <rect x="324" y="22" width="108" height="46" rx="8" fill="#1e1e2e" stroke="#0ea5e9" stroke-width="1.2"/>
  <text x="378" y="41" text-anchor="middle" font-size="11" font-weight="700" fill="#0ea5e9">AZURE SEARCH</text>
  <text x="378" y="57" text-anchor="middle" font-size="10" fill="#94a3b8">Hybrid · Vector</text>

  <!-- Badge: Azure OpenAI -->
  <rect x="444" y="22" width="108" height="46" rx="8" fill="#1e1e2e" stroke="#8b5cf6" stroke-width="1.2"/>
  <text x="498" y="41" text-anchor="middle" font-size="11" font-weight="700" fill="#8b5cf6">AZURE OPENAI</text>
  <text x="498" y="57" text-anchor="middle" font-size="10" fill="#94a3b8">Embeddings</text>

  <!-- Badge: Zustand -->
  <rect x="564" y="22" width="90" height="46" rx="8" fill="#1e1e2e" stroke="#10b981" stroke-width="1.2"/>
  <text x="609" y="41" text-anchor="middle" font-size="11" font-weight="700" fill="#10b981">ZUSTAND</text>
  <text x="609" y="57" text-anchor="middle" font-size="10" fill="#94a3b8">State · LocalStorage</text>

  <!-- Badge: Tailwind -->
  <rect x="666" y="22" width="90" height="46" rx="8" fill="#1e1e2e" stroke="#06b6d4" stroke-width="1.2"/>
  <text x="711" y="41" text-anchor="middle" font-size="11" font-weight="700" fill="#06b6d4">TAILWIND</text>
  <text x="711" y="57" text-anchor="middle" font-size="10" fill="#94a3b8">CSS 4 · Design</text>

  <!-- Badge: Vitest -->
  <rect x="768" y="22" width="114" height="46" rx="8" fill="#1e1e2e" stroke="#f472b6" stroke-width="1.2"/>
  <text x="825" y="41" text-anchor="middle" font-size="11" font-weight="700" fill="#f472b6">VITEST</text>
  <text x="825" y="57" text-anchor="middle" font-size="10" fill="#94a3b8">186 tests · All ✓</text>
</svg>
